<svg id="Layer_1" data-name="Layer 1" xmlns="http://www.w3.org/2000/svg" viewBox="0 0 1920 1080"><title>Artboard 1</title><path d="M819.85,212H524c6.6,0,10,5.4,10,12v44a12,12,0,0,1-4.1,9H584a12,12,0,0,1,12,12v44a12,12,0,0,1-12,12H476.6a12,12,0,0,1,5.4,10v44c0,6.59-.4,12.1-7,12.1l59-.11a12,12,0,0,1,12,12v44a12,12,0,0,1-12,12H498a12,12,0,0,1,12,12v44a12,12,0,0,1-12,12h68a12,12,0,0,1,12,12v44a12,12,0,0,1-12,12H452.6a12,12,0,0,1,5.4,10v44a12,12,0,0,1-10.12,11.83v.16H510a12,12,0,0,1,12,12v44a12,12,0,0,1-12,12H461.9a12,12,0,0,1,4.1,9v44A12,12,0,0,1,458,813v.72l361.85.32c199,0,289.15-128.35,289.15-301S1018.82,212,819.85,212ZM796.34,679.32H743.79L744,346.68h52.34c96.77,0,142,71.41,142,166.32S893.11,679.32,796.34,679.32Z"/><ellipse cx="461.5" cy="781.18" rx="32.5" ry="32.48"/><ellipse cx="451" cy="647.76" rx="33" ry="32.98"/><ellipse cx="497" cy="512.83" rx="34" ry="33.98"/><ellipse cx="475" cy="377.9" rx="33" ry="33.1"/><circle cx="527.5" cy="244.5" r="32.5"/><path d="M1280.44,794.93c3.31,10.49-3,19.07-14,19.07h-73.34c-11,0-22.7-8.58-26-19.07l-178-563.86c-3.31-10.49,3-19.07,14-19.07h73.34c11,0,22.71,8.58,26,19.07Z"/><path d="M1263.14,794.93c-3.31,10.49-.77,19.07,5.65,19.07s14.38-8.58,17.69-19.07l178-563.86c3.31-10.49.77-19.07-5.65-19.07s-14.37,8.58-17.69,19.07Z"/></svg>