<?xml version="1.0" encoding="utf-8"?>
<!-- Generator: Adobe Illustrator 22.1.0, SVG Export Plug-In . SVG Version: 6.00 Build 0)  -->
<svg version="1.1" id="Layer_1" xmlns="http://www.w3.org/2000/svg" xmlns:xlink="http://www.w3.org/1999/xlink" x="0px" y="0px"
	 viewBox="0 0 1920 1080" style="enable-background:new 0 0 1920 1080;" xml:space="preserve">
<style type="text/css">
	.st0{fill:#FFFFFF;}
</style>
<path class="st0" d="M819.9,212H524c6.6,0,10,5.4,10,12v44c0,3.6-1.6,6.8-4.1,9H584c6.6,0,12,5.4,12,12v44c0,6.6-5.4,12-12,12H476.6
	c3.2,2.2,5.4,5.8,5.4,10v44c0,6.6-0.4,12.1-7,12.1l59-0.1c6.6,0,12,5.4,12,12v44c0,6.6-5.4,12-12,12h-36c6.6,0,12,5.4,12,12v44
	c0,6.6-5.4,12-12,12h68c6.6,0,12,5.4,12,12v44c0,6.6-5.4,12-12,12H452.6c3.2,2.2,5.4,5.8,5.4,10v44c0,6-4.4,10.9-10.1,11.8l0,0.2
	H510c6.6,0,12,5.4,12,12v44c0,6.6-5.4,12-12,12h-48.1c2.5,2.2,4.1,5.4,4.1,9v44c0,5.2-3.4,9.6-8,11.3v0.7l361.9,0.3
	c199,0,289.1-128.4,289.1-301C1109,340.4,1018.8,212,819.9,212z M796.3,679.3h-52.5l0.2-332.6h52.3c96.8,0,142,71.4,142,166.3
	C938.3,607.9,893.1,679.3,796.3,679.3z"/>
<ellipse class="st0" cx="461.5" cy="781.2" rx="32.5" ry="32.5"/>
<ellipse class="st0" cx="451" cy="647.8" rx="33" ry="33"/>
<ellipse class="st0" cx="497" cy="512.8" rx="34" ry="34"/>
<ellipse class="st0" cx="475" cy="377.9" rx="33" ry="33.1"/>
<circle class="st0" cx="527.5" cy="244.5" r="32.5"/>
<g>
	<g>
		<g>
			<path class="st0" d="M1280.4,794.9c3.3,10.5-3,19.1-14,19.1h-73.3c-11,0-22.7-8.6-26-19.1l-178-563.9c-3.3-10.5,3-19.1,14-19.1
				h73.3c11,0,22.7,8.6,26,19.1L1280.4,794.9z"/>
		</g>
		<g>
			<path class="st0" d="M1263.1,794.9c-3.3,10.5-0.8,19.1,5.6,19.1c6.4,0,14.4-8.6,17.7-19.1l178-563.9c3.3-10.5,0.8-19.1-5.6-19.1
				c-6.4,0-14.4,8.6-17.7,19.1L1263.1,794.9z"/>
		</g>
	</g>
</g>
<polygon class="st0" points="530,277 530,277 530,277 530,277 "/>
</svg>
